# xmcd
#
# Track frame offsets:
#	150
#	17399
#	33649
#	55808
#	72903
#	95252
#	111501
#	132625
#	150990
#	168082
#	185873
#
# Disc length: 2752 seconds
#
# Revision: 1
# Processed by: cddbd v1.5.2PL0 Copyright (c) Steve Scherf et al.
# Submitted via: EasyCDDAExtractor 16.0.6.1
#
DISCID=900abe0b
DTITLE=Simon McBride - Crossing The Line
DYEAR=2012
DGENRE=Blues
TTITLE0=Lead Us Away
TTITLE1=Go Down Gamblin'
TTITLE2=No Room To Breathe
TTITLE3=Don't Be a Fool
TTITLE4=Starve This Fever
TTITLE5=Alcatraz
TTITLE6=One More Try
TTITLE7=A Rock And a Storm
TTITLE8=Heartbreaker
TTITLE9=Home To Me
TTITLE10=Down To The Wire (revisited)
EXTD=
EXTT0=
EXTT1=
EXTT2=
EXTT3=
EXTT4=
EXTT5=
EXTT6=
EXTT7=
EXTT8=
EXTT9=
EXTT10=
PLAYORDER=
